<?xml version="1.0" standalone="no"?>
<!DOCTYPE svg PUBLIC "-//W3C//DTD SVG 20010904//EN"
 "http://www.w3.org/TR/2001/REC-SVG-20010904/DTD/svg10.dtd">
<svg version="1.0" xmlns="http://www.w3.org/2000/svg"
 width="146.000000pt" height="146.000000pt" viewBox="0 0 146.000000 146.000000"
 preserveAspectRatio="xMidYMid meet">
<metadata>
Created by potrace 1.11, written by Peter Selinger 2001-2013
</metadata>
<g transform="translate(0.000000,146.000000) scale(0.100000,-0.100000)"
fill="#000000" stroke="none">
<path d="M595 1418 c-151 -14 -290 -81 -400 -192 -248 -251 -249 -672 -2 -942
219 -239 553 -323 796 -199 27 13 52 29 56 35 3 6 22 -1 46 -16 69 -43 81 -45
137 -19 27 13 68 40 91 60 l40 37 0 113 c0 101 3 120 25 163 47 92 66 184 66
312 0 112 -19 196 -71 306 -35 73 -121 187 -169 224 -18 14 -38 30 -44 36 -15
14 -94 64 -102 64 -3 0 9 -12 28 -27 81 -68 159 -169 203 -266 38 -81 56 -163
62 -274 l6 -103 -27 0 c-25 0 -26 3 -27 53 -2 174 -64 320 -190 446 -139 141
-327 208 -524 189z m288 -287 c74 -29 166 -113 200 -183 34 -71 43 -103 46
-166 l3 -53 -184 1 c-101 1 -216 1 -256 1 l-74 -1 7 -61 c4 -33 14 -83 23
-112 l17 -51 172 -1 c166 0 172 -1 150 -17 -70 -54 -258 -79 -339 -45 -26 11
-35 12 -32 3 6 -16 54 -44 117 -67 l52 -20 -65 6 c-88 7 -103 10 -163 38 -127
59 -216 190 -225 330 -11 181 92 340 261 403 82 30 205 28 290 -5z"/>
</g>
</svg>
